<svg xmlns="http://www.w3.org/2000/svg" viewBox="0 0 145 43"><defs><style>.cls-1{fill:#4c48d3;}.cls-2{fill:#4c47d2;}.cls-3{fill:#fff;}</style></defs><title>Recurso 5</title><g id="Capa_2" data-name="Capa 2"><g id="Layer_1" data-name="Layer 1"><path class="cls-1" d="M144.05,37.92A4.1,4.1,0,0,1,139.94,42H5.11A4.12,4.12,0,0,1,1,37.92V5.09A4.14,4.14,0,0,1,5.11,1H139.94a4.13,4.13,0,0,1,4.13,4.14Z"/><path class="cls-2" d="M139.92,43H5.08A5.08,5.08,0,0,1,0,37.92V5.09A5.08,5.08,0,0,1,5.08,0H139.92A5.08,5.08,0,0,1,145,5.09V37.91A5.08,5.08,0,0,1,139.92,43Z"/><path class="cls-3" d="M32.38,21.27a6.21,6.21,0,0,1,3-5.23,6.35,6.35,0,0,0-5-2.71c-2.11-.24-4.15,1.27-5.24,1.27s-2.77-1.25-4.55-1.2a6.73,6.73,0,0,0-5.64,3.43c-2.44,4.23-.63,10.43,1.71,13.82,1.16,1.67,2.53,3.53,4.32,3.46S23.3,33,25.41,33s2.69,1.12,4.53,1.07,3.06-1.67,4.18-3.37a13.9,13.9,0,0,0,1.9-3.9A6,6,0,0,1,32.38,21.27Zm-3.44-10.2a6.09,6.09,0,0,0,1.39-4.38,6.31,6.31,0,0,0-4,2.09A5.85,5.85,0,0,0,24.86,13,5.09,5.09,0,0,0,28.94,11.07Z"/><path class="cls-3" d="M57.67,33.88H55.23l-1.34-4.21H49.25L48,33.88H45.6l4.6-14.31h2.85Zm-4.18-6-1.2-3.74c-.14-.37-.38-1.28-.72-2.69h0c-.14.6-.37,1.51-.67,2.69l-1.19,3.74Zm16,.67A5.8,5.8,0,0,1,68,32.74a4.2,4.2,0,0,1-3.18,1.37,3.18,3.18,0,0,1-2.94-1.47v5.41H59.64V26.93c0-1.09,0-2.23-.09-3.39h2l.14,1.63h0a4.08,4.08,0,0,1,6.53-.42,5.89,5.89,0,0,1,1.2,3.83Zm-2.32.09a4.36,4.36,0,0,0-.67-2.48A2.43,2.43,0,0,0,63,25.73a2.55,2.55,0,0,0-.9,1.48,3.42,3.42,0,0,0-.12.7v1.72a2.72,2.72,0,0,0,.7,1.9,2.31,2.31,0,0,0,1.79.77,2.34,2.34,0,0,0,2-1,4.27,4.27,0,0,0,.72-2.63Zm14.21-.09a5.84,5.84,0,0,1-1.44,4.16,4.23,4.23,0,0,1-3.18,1.37,3.19,3.19,0,0,1-3-1.47v5.41H71.5V26.93c0-1.09,0-2.23-.09-3.39h2l.14,1.63h.05a3.82,3.82,0,0,1,3.48-1.86,3.88,3.88,0,0,1,3,1.44A5.9,5.9,0,0,1,81.37,28.58ZM79,28.67a4.36,4.36,0,0,0-.67-2.48,2.36,2.36,0,0,0-2-1,2.33,2.33,0,0,0-1.53.56,2.5,2.5,0,0,0-.9,1.48,3.1,3.1,0,0,0-.12.7v1.72a2.72,2.72,0,0,0,.7,1.9,2.3,2.3,0,0,0,1.78.77,2.36,2.36,0,0,0,2-1A4.27,4.27,0,0,0,79,28.67Zm15.6,1.19a3.8,3.8,0,0,1-1.28,3,5.61,5.61,0,0,1-3.9,1.26,7,7,0,0,1-3.71-.89l.53-1.9a6.32,6.32,0,0,0,3.32.88,3.1,3.1,0,0,0,2-.58,1.86,1.86,0,0,0,.72-1.55,2,2,0,0,0-.6-1.47,5.77,5.77,0,0,0-2-1.11c-2.5-.93-3.76-2.3-3.76-4.11a3.57,3.57,0,0,1,1.33-2.88,5.28,5.28,0,0,1,3.5-1.11,7.12,7.12,0,0,1,3.25.67l-.58,1.86a5.52,5.52,0,0,0-2.74-.65,2.79,2.79,0,0,0-1.9.6,1.75,1.75,0,0,0-.58,1.3,1.69,1.69,0,0,0,.65,1.39A7.26,7.26,0,0,0,91,25.66a6.9,6.9,0,0,1,2.71,1.74A3.35,3.35,0,0,1,94.62,29.86Zm7.59-4.58H99.68v5c0,1.28.44,1.9,1.34,1.9a3.35,3.35,0,0,0,1-.11l.07,1.74a5.32,5.32,0,0,1-1.78.26,2.71,2.71,0,0,1-2.12-.84,4.1,4.1,0,0,1-.76-2.79v-5.2H95.94V23.54h1.51V21.66L99.7,21v2.58h2.53l0,1.71Zm11.37,3.35a5.69,5.69,0,0,1-1.37,3.9,4.89,4.89,0,0,1-3.78,1.58,4.64,4.64,0,0,1-3.62-1.51,5.45,5.45,0,0,1-1.35-3.81,5.58,5.58,0,0,1,1.39-3.92,4.83,4.83,0,0,1,3.74-1.54,4.68,4.68,0,0,1,3.64,1.51,5.37,5.37,0,0,1,1.35,3.79Zm-2.37,0a4.76,4.76,0,0,0-.6-2.43A2.27,2.27,0,0,0,108.54,25a2.31,2.31,0,0,0-2.11,1.23,4.61,4.61,0,0,0-.6,2.48,4.82,4.82,0,0,0,.6,2.44,2.36,2.36,0,0,0,4.16,0,4.77,4.77,0,0,0,.62-2.47ZM121,25.56a4.46,4.46,0,0,0-.72-.06,2.12,2.12,0,0,0-1.86.9,3.49,3.49,0,0,0-.58,2v5.41h-2.3v-7c0-1.1,0-2.16-.07-3.26h2l.09,2h.07a3.45,3.45,0,0,1,1.14-1.63,2.86,2.86,0,0,1,1.65-.55,5.28,5.28,0,0,1,.58,0Zm10.26,2.67a5.33,5.33,0,0,1-.1,1.05h-6.87a3,3,0,0,0,1,2.34,3.34,3.34,0,0,0,2.25.72,7.78,7.78,0,0,0,2.79-.48l.34,1.57a8.67,8.67,0,0,1-3.45.63,4.89,4.89,0,0,1-3.76-1.42,5.22,5.22,0,0,1-1.37-3.78A5.81,5.81,0,0,1,123.39,25a4.35,4.35,0,0,1,3.6-1.64A3.83,3.83,0,0,1,130.36,25a5.47,5.47,0,0,1,.93,3.25Zm-2.19-.6a3.11,3.11,0,0,0-.44-1.77,2,2,0,0,0-1.83-.95,2.19,2.19,0,0,0-1.83.93,3.5,3.5,0,0,0-.68,1.79ZM48.6,14.51A11.45,11.45,0,0,1,47,14.42V7.5a14.21,14.21,0,0,1,1.95-.14c2.62,0,3.83,1.3,3.83,3.41C52.73,13.19,51.29,14.51,48.6,14.51ZM49,8.24a5.91,5.91,0,0,0-.91.07v5.25a7.24,7.24,0,0,0,.77,0,2.48,2.48,0,0,0,2.69-2.81A2.29,2.29,0,0,0,49,8.24Zm7.52,6.32A2.41,2.41,0,0,1,54.05,12a2.46,2.46,0,0,1,2.53-2.67A2.39,2.39,0,0,1,59,11.89,2.5,2.5,0,0,1,56.49,14.56Zm0-4.46c-.81,0-1.34.77-1.34,1.84s.53,1.81,1.32,1.81,1.32-.82,1.32-1.84-.51-1.81-1.3-1.81Zm10.93-.72-1.57,5.06h-1l-.65-2.2c-.16-.54-.3-1.1-.42-1.65h0a9.51,9.51,0,0,1-.42,1.65l-.69,2.2h-1L60.11,9.38h1.16l.58,2.42c.14.58.26,1.11.35,1.62h0c.09-.42.21-.95.42-1.62l.72-2.42h.93l.7,2.37c.16.58.3,1.14.41,1.67h0a13.77,13.77,0,0,1,.34-1.67l.63-2.37Zm5.83,5.06H72.18v-2.9c0-.9-.35-1.35-1-1.35A1.17,1.17,0,0,0,70,11.42v3H68.88V10.82c0-.44,0-.93,0-1.44h1l0,.79h0a1.85,1.85,0,0,1,1.6-.88c1.07,0,1.76.81,1.76,2.13l0,3Zm3.11,0H75.26V7H76.4Zm4.11.12A2.41,2.41,0,0,1,78.07,12,2.46,2.46,0,0,1,80.6,9.29,2.39,2.39,0,0,1,83,11.89,2.49,2.49,0,0,1,80.51,14.56Zm0-4.46c-.81,0-1.34.77-1.34,1.84s.53,1.81,1.32,1.81,1.32-.82,1.32-1.84S81.34,10.1,80.55,10.1Zm6.92,4.34-.09-.58h0a1.72,1.72,0,0,1-1.48.7,1.47,1.47,0,0,1-1.56-1.49c0-1.25,1.09-1.9,3-1.9v-.09c0-.68-.34-1-1-1a2.27,2.27,0,0,0-1.32.37l-.23-.75a3.12,3.12,0,0,1,1.74-.44c1.32,0,2,.7,2,2.09v1.86a7.77,7.77,0,0,0,.07,1.21Zm-.16-2.53c-1.26,0-1.88.3-1.88,1a.71.71,0,0,0,.76.79,1.09,1.09,0,0,0,1.12-1v-.79Zm6.56,2.53,0-.81h0a1.73,1.73,0,0,1-1.63.93A2.31,2.31,0,0,1,90,12c0-1.58.93-2.69,2.23-2.69a1.54,1.54,0,0,1,1.44.7h0V7h1.13v6c0,.49,0,.95,0,1.37Zm-.16-3a1.22,1.22,0,0,0-1.18-1.32c-.84,0-1.35.74-1.35,1.79s.54,1.71,1.32,1.71a1.26,1.26,0,0,0,1.21-1.34v-.84ZM102,14.56A2.41,2.41,0,0,1,99.56,12a2.46,2.46,0,0,1,2.53-2.67,2.39,2.39,0,0,1,2.44,2.6A2.49,2.49,0,0,1,102,14.56Zm0-4.46c-.81,0-1.32.77-1.32,1.84s.53,1.81,1.32,1.81,1.33-.82,1.33-1.84S102.83,10.1,102,10.1Zm8.54,4.34h-1.13v-2.9c0-.9-.35-1.35-1-1.35a1.16,1.16,0,0,0-1.11,1.23v3h-1.14V10.82c0-.44,0-.93,0-1.44h1l0,.79h0a1.87,1.87,0,0,1,1.61-.88c1.06,0,1.76.81,1.76,2.13v3Zm7.57-4.22h-1.23v2.46c0,.63.21.93.65.93a3.25,3.25,0,0,0,.51,0l0,.86a2.39,2.39,0,0,1-.88.11c-.88,0-1.41-.48-1.41-1.76V10.21h-.75V9.38h.75V8.45l1.11-.32V9.38h1.23v.84Zm6,4.22H123V11.56c0-.9-.35-1.37-1-1.37a1.12,1.12,0,0,0-1.14,1.21v3.07h-1.11V7h1.11v3.05h0a1.7,1.7,0,0,1,1.53-.84c1.07,0,1.72.84,1.72,2.16v3Zm6.11-2.25h-3.39a1.46,1.46,0,0,0,1.6,1.51,4.52,4.52,0,0,0,1.37-.23l.19.79a4.27,4.27,0,0,1-1.7.3A2.36,2.36,0,0,1,125.76,12a2.46,2.46,0,0,1,2.39-2.72,2.13,2.13,0,0,1,2.12,2.41A3.13,3.13,0,0,1,130.22,12.19Zm-1-.81c0-.79-.4-1.35-1.12-1.35a1.33,1.33,0,0,0-1.23,1.35Z"/></g></g></svg>