<svg xmlns="http://www.w3.org/2000/svg" viewBox="0 0 145 43"><defs><style>.cls-1{fill:#4c47d2;}.cls-2{fill:#fff;}.cls-3{fill:#46cbff;}.cls-4{fill:#fad100;}.cls-5{fill:#ea2e45;}.cls-6{fill:#4df06f;}</style></defs><title>Recurso 6</title><g id="Capa_2" data-name="Capa 2"><g id="Layer_1" data-name="Layer 1"><path class="cls-1" d="M139.63,43H5.37A5.33,5.33,0,0,1,0,37.63V5.38A5.33,5.33,0,0,1,5.37,0H139.63A5.32,5.32,0,0,1,145,5.38V37.63A5.32,5.32,0,0,1,139.63,43Z"/><path class="cls-1" d="M139.63.86a4.54,4.54,0,0,1,4.51,4.52V37.63a4.54,4.54,0,0,1-4.51,4.51H5.37A4.54,4.54,0,0,1,.86,37.63V5.38A4.54,4.54,0,0,1,5.37.86H139.63m0-.86H5.37A5.39,5.39,0,0,0,0,5.38V37.63A5.32,5.32,0,0,0,5.37,43H139.63A5.33,5.33,0,0,0,145,37.63V5.38A5.39,5.39,0,0,0,139.63,0Z"/><path class="cls-2" d="M50.91,11a3,3,0,0,1-.75,2.15,3.33,3.33,0,0,1-5.69-2.37A3.3,3.3,0,0,1,47.8,7.42a2.88,2.88,0,0,1,1.28.32,2.31,2.31,0,0,1,1,.75L49.52,9a2,2,0,0,0-1.72-.75A2.12,2.12,0,0,0,46.08,9a2.2,2.2,0,0,0-.75,1.83,2.19,2.19,0,0,0,.75,1.82,2.7,2.7,0,0,0,1.72.76,2.33,2.33,0,0,0,1.82-.76,1.78,1.78,0,0,0,.54-1.29H47.8v-.85h3.11Zm4.94-2.69H53v2h2.69v.75H53v2h2.9V14H52.09V7.53h3.76ZM59.4,14h-.86V8.28H56.71V7.53h4.51v.75H59.4Zm4.94,0V7.53h.85V14Zm4.51,0H68V8.28H66.16V7.53h4.41v.75H68.74V14Zm10.2-.86a3.33,3.33,0,0,1-5.69-2.37,3.12,3.12,0,0,1,1-2.36,3.36,3.36,0,0,1,4.72,0,3.12,3.12,0,0,1,1,2.36A3.2,3.2,0,0,1,79.05,13.12ZM75,12.58a2.52,2.52,0,0,0,1.72.75,2.14,2.14,0,0,0,1.72-.75,2.6,2.6,0,0,0,.75-1.83,2.24,2.24,0,0,0-.75-1.83,2.54,2.54,0,0,0-1.72-.75A2.15,2.15,0,0,0,75,8.92a2.6,2.6,0,0,0-.75,1.83A2.21,2.21,0,0,0,75,12.58ZM81.2,14V7.53h1l3.11,5.05v-5h.86V14h-.86L82,8.71V14Z"/><path class="cls-2" d="M73.14,23.43a4.52,4.52,0,0,0-4.61,4.63,4.58,4.58,0,0,0,4.61,4.62,4.52,4.52,0,0,0,4.62-4.62A4.46,4.46,0,0,0,73.14,23.43Zm0,7.32a2.8,2.8,0,0,1,0-5.59A2.6,2.6,0,0,1,75.72,28,2.67,2.67,0,0,1,73.14,30.75Zm-10-7.32a4.52,4.52,0,0,0-4.61,4.63,4.58,4.58,0,0,0,4.61,4.62,4.52,4.52,0,0,0,4.62-4.62A4.46,4.46,0,0,0,63.15,23.43Zm0,7.32a2.8,2.8,0,0,1,0-5.59A2.6,2.6,0,0,1,65.73,28,2.67,2.67,0,0,1,63.15,30.75ZM51.23,24.83v1.94h4.62a4.13,4.13,0,0,1-1.07,2.47,4.75,4.75,0,0,1-3.55,1.4,5,5,0,0,1-5-5.16,5.07,5.07,0,0,1,5-5.16,5.34,5.34,0,0,1,3.55,1.4l1.39-1.4a6.89,6.89,0,0,0-4.83-1.94,7.25,7.25,0,0,0-7.2,7.1,7.25,7.25,0,0,0,7.2,7.09,6.17,6.17,0,0,0,4.94-2A6.47,6.47,0,0,0,58,26a4,4,0,0,0-.11-1.19ZM100,26.34a4.17,4.17,0,0,0-3.87-2.9,4.33,4.33,0,0,0-4.3,4.62,4.5,4.5,0,0,0,4.51,4.62,4.41,4.41,0,0,0,3.76-2l-1.5-1.08a2.61,2.61,0,0,1-2.26,1.29,2.32,2.32,0,0,1-2.25-1.39l6.12-2.58-.21-.54Zm-6.24,1.5a2.61,2.61,0,0,1,2.37-2.68,1.92,1.92,0,0,1,1.72,1Zm-5,4.41h2V18.81h-2ZM85.5,24.4A3.54,3.54,0,0,0,83,23.33,4.62,4.62,0,0,0,78.62,28,4.45,4.45,0,0,0,83,32.47a3.08,3.08,0,0,0,2.37-1.08h.1V32a2.44,2.44,0,0,1-4.72,1.07l-1.72.75a4.42,4.42,0,0,0,4.08,2.69c2.36,0,4.3-1.4,4.3-4.73V23.65H85.49v.75Zm-2.37,6.35a2.8,2.8,0,0,1,0-5.59A2.58,2.58,0,0,1,85.6,28,2.59,2.59,0,0,1,83.13,30.75Zm26.21-11.94h-4.83V32.25h2V27.2h2.79a4.2,4.2,0,1,0,0-8.39Zm.11,6.45h-2.9V20.64h2.9a2.36,2.36,0,0,1,2.36,2.26A2.46,2.46,0,0,1,109.45,25.26Zm12.35-1.93a3.61,3.61,0,0,0-3.55,2l1.83.75a1.9,1.9,0,0,1,1.82-1,2,2,0,0,1,2.15,1.72V27a4.3,4.3,0,0,0-2-.54c-1.93,0-3.87,1.08-3.87,3a3.16,3.16,0,0,0,3.33,3,3,3,0,0,0,2.58-1.29h.11v1.07h1.93V27.09A4.06,4.06,0,0,0,121.8,23.33Zm-.22,7.42c-.64,0-1.61-.33-1.61-1.19,0-1.07,1.18-1.39,2.15-1.39a4.11,4.11,0,0,1,1.83.43A2.51,2.51,0,0,1,121.58,30.75Zm11.28-7.1-2.26,5.81h-.1l-2.37-5.81H126l3.54,8.17-2,4.52h2L135,23.65Zm-18,8.6h2V18.81h-2Z"/><path class="cls-3" d="M11.22,8.11a2.13,2.13,0,0,0-.43,1.51V33.38a1.87,1.87,0,0,0,.45,1.41h.2L24.75,21.66v-.21Z"/><path class="cls-4" d="M29,26.12l-4.4-4.4V21.4L29,17.05l.07,0,5.26,3c1.5.86,1.5,2.26,0,3.12Z"/><path class="cls-5" d="M29.16,26,24.59,21.5,11.24,34.78a1.77,1.77,0,0,0,2.19.18L29,26.12Z"/><path class="cls-6" d="M29,17.05l-15.61-9c-1-.53-1.68-.48-2.21.06L24.6,21.5Z"/></g></g></svg>