<?xml version="1.0" encoding="utf-8"?>
<!-- Generator: Adobe Illustrator 23.0.3, SVG Export Plug-In . SVG Version: 6.00 Build 0)  -->
<svg version="1.1" id="Capa_1" xmlns="http://www.w3.org/2000/svg" xmlns:xlink="http://www.w3.org/1999/xlink" x="0px" y="0px"
	 viewBox="0 0 1968.9 469.7" style="enable-background:new 0 0 1968.9 469.7;" xml:space="preserve">
<style type="text/css">
	.st0{fill:none;}
	.st1{fill:#FFFFFF;}
	.st2{font-family:'OpenSans-Bold';}
	.st3{font-size:412px;}
</style>
<g>
	<rect x="579.6" y="-48.6" class="st0" width="1077.4" height="381"/>
	<rect x="562" y="34.7" class="st0" width="1343.9" height="365.3"/>
	<text transform="matrix(0.8123 0 0 1 561.959 387.759)" class="st1 st2 st3">HireYou</text>
	<g>
		<path class="st1" d="M260.1,401.6c0-4.4,3.8-7.9,8.5-7.9h29.1c12.3,7.7,26.1,13,40.8,15.5c-0.6,0.1-1.2,0.3-1.8,0.3h-68.1
			C263.9,409.6,260.1,406,260.1,401.6z M239.4,338.1h15.1c-1.6-5.2-2.8-10.5-3.4-15.9h-11.7c-4.7,0-8.5,3.6-8.5,7.9
			S234.7,338.1,239.4,338.1z M177,137.5c-10.4-6.5-17.6-19.5-17.6-31.2c0-16.5,14.2-29.8,31.8-29.8S223,89.9,223,106.4
			c0,11.7-7.2,24.6-17.6,31.2c24.9,5.9,43.4,26.2,43.4,41.2c0,17.8-115.2,17.8-115.2,0C133.6,163.7,152.1,143.5,177,137.5z
			 M175.1,177l16.2,15.1l16.2-15.1l-13.6-30.8h0.1l5.3-5.7c-2.6,0.8-5.2,1.4-8,1.4c-2.8,0-5.4-0.5-8-1.4l5.3,5.7h0.1L175.1,177z
			 M388,440.2L388,440.2l-0.4-0.7c-0.2,0-0.4,0-0.6,0H91.7c-15.3,0-27.7-11.6-27.7-25.9V67.9C64,53.6,76.4,42,91.7,42H387
			c15.3,0,27.7,11.6,27.7,25.9v158.2c6.6,3.9,12.9,8.4,18.5,13.6V67.9c0-23.8-20.7-43.2-46.1-43.2H91.7c-25.5,0-46.2,19.4-46.2,43.2
			v345.8c0,23.8,20.7,43.2,46.2,43.2H387c3.6,0,7.1-0.5,10.5-1.2L388,440.2z M142.1,301.9h108.8c0.5-5.3,1.5-10.6,2.9-15.9H142.1
			c-4.7,0-8.5,3.5-8.5,7.9C133.6,298.4,137.4,301.9,142.1,301.9z M142.1,229.5h152.4c3-2,6.1-4,9.4-5.8c8.3-4.5,17.2-7.9,26.4-10.1
			H142.1c-4.7,0-8.5,3.6-8.5,8C133.6,226,137.4,229.5,142.1,229.5z M142.1,265.7h119.6c3-5.6,6.5-10.9,10.5-15.9H142.1
			c-4.7,0-8.5,3.6-8.5,7.9S137.4,265.7,142.1,265.7z M431.8,270.5c23.6,38.3,9.6,87.6-31.4,109.7c-40.9,22.1-93.5,9-117.1-29.4
			c-23.7-38.3-9.6-87.6,31.4-109.7C355.5,219,408.1,232.2,431.8,270.5z M419.5,277.2c-19.8-32-63.6-43-97.8-24.6
			c-34.2,18.5-46,59.5-26.2,91.6c19.7,32,63.6,43,97.7,24.6C427.4,350.2,439.2,309.2,419.5,277.2z M421.9,375.3L385,395.2l28.4,46
			l36.9-19.9L421.9,375.3z M454.1,427.6l-36.9,19.9c5.9,9.6,18.9,12.8,29.1,7.3C456.5,449.4,460,437.1,454.1,427.6z"/>
	</g>
</g>
</svg>
